<svg xmlns="http://www.w3.org/2000/svg" viewBox="0 0 475 321.28"><defs><style>.cls-1{fill:#313131;}.cls-2{fill:#f7ab05;}</style></defs><g id="Layer_2" data-name="Layer 2"><g id="Layer_1-2" data-name="Layer 1"><path class="cls-1" d="M207.68,180.54c-37.1-6.81-66.33,18.5-80.45,34.09a4.59,4.59,0,0,0,6.82,6.14h0c12.84-14.25,39.2-37.28,72-31.3,17.05,3.11,23.56,18.57,24,32a4.58,4.58,0,0,0,4.57,4.41h.17a4.61,4.61,0,0,0,4.42-4.74C238.46,199.87,226.07,183.9,207.68,180.54Z"></path><path class="cls-2" d="M389.07,269.48a26.1,26.1,0,0,0,23.2,28.72,25.3,25.3,0,0,0,3.14.15,31.29,31.29,0,0,0,30.52-28.05,26,26,0,0,0-26.35-28.84A31.24,31.24,0,0,0,389.07,269.48Zm30.51-18.94a17,17,0,0,1,17.22,18.87,21.94,21.94,0,0,1-21.39,19.7,17.16,17.16,0,0,1-12.85-5.47,17.4,17.4,0,0,1-4.37-13.43A21.94,21.94,0,0,1,419.58,250.54Z"></path><path class="cls-2" d="M58.12,132.24h45.24a4.59,4.59,0,0,0,0-9.17H58.12a4.59,4.59,0,0,0,0,9.17Z"></path><path class="cls-2" d="M115.47,159a4.58,4.58,0,0,0-4.58-4.58H4.59a4.59,4.59,0,1,0,0,9.17H110.89A4.58,4.58,0,0,0,115.47,159Z"></path><path class="cls-2" d="M70,186.54H27.9a4.59,4.59,0,0,0,0,9.17H70a4.59,4.59,0,0,0,0-9.17Z"></path><path class="cls-1" d="M474.72,230.74v-.12c-9.72-26.37-26.88-38.11-55.7-38.11a61.12,61.12,0,0,0-20.95,3.7,43.47,43.47,0,0,0,2.22-29c-1.3-5.11-5.64-18.49-10.23-32.65-2.28-7-4.62-14.18-6.61-20.45,1.14,0,2.3.13,3.41.13,4.77,0,9.2-1,10.94-5.11,2.85-6.65,4.24-22.69,2.59-29.59V79.2c-1.24-6.71-7.07-8.09-15.46-8.09a18,18,0,0,0-12.47,4.12l-33.7,6.65a248.49,248.49,0,0,0,19.16-17.69l.3-.1a79.92,79.92,0,0,1,12.17-4.71,11.8,11.8,0,0,1,1.08.53,21.8,21.8,0,0,0,13.72,2.63C395,61.36,403,50.6,406.25,40.22c5.87.55,10.55,1,10.67,1H418a2.84,2.84,0,0,0,.57-.1l.3-.1a2.85,2.85,0,0,0,.51-.2l.31-.16.43-.29.29-.24.35-.34.26-.3a6.17,6.17,0,0,0,.48-.77c.06-.13.12-.26.17-.39a4.27,4.27,0,0,0,.13-.48.67.67,0,0,0,0-.2.74.74,0,0,0,0-.21v-.54c.19-2.94-2-5.44-4.55-8.3-.85-.92-1.66-1.88-2.42-2.88-.68-10.54-7-23.22-22.07-25.35-18.42-2.61-33.1,7.31-39.2,26-.8-.1-1.7-.13-2.44-.22l-.83-.15a3.7,3.7,0,0,0-.94,0C317.87,23.57,283.52,35.79,258,59c-29.57,27-36.39,55.41-30.22,70.41a14.89,14.89,0,0,0,4.4,5.22H217l5.11-59.35a4.62,4.62,0,0,0-4.23-5H137a14.77,14.77,0,0,0-4.69.22,4.26,4.26,0,0,0-2.66,3.68L124,138.89a4.58,4.58,0,0,0,4.18,5l.39,0h30.68a13.45,13.45,0,0,0-.74,1.7l-6.08,17.1a3.87,3.87,0,0,0-.24,1.07c-47.28,34.34-70.12,78.84-65,94.49a9,9,0,0,0,8.77,6.58h16.55c-.27,1.55-.49,3.13-.63,4.68A46.76,46.76,0,0,0,153.34,321a48.35,48.35,0,0,0,5.77.26c28.08,0,52.95-22.86,55.4-50.94a48.3,48.3,0,0,0,.17-5.51H330.34c9.43,0,16-2.1,21.29-5.59a9.79,9.79,0,0,0,1.55,2.23,10.78,10.78,0,0,0,8.15,3.41h5.43c-.27,1.55-.49,3.12-.63,4.69A46.75,46.75,0,0,0,407.62,321a45.77,45.77,0,0,0,5.74.26c28.11,0,52.95-22.85,55.43-50.94a47.75,47.75,0,0,0-9.34-33.42h11a4.59,4.59,0,0,0,4.54-4.63A4.47,4.47,0,0,0,474.72,230.74ZM384.15,53.45a12.66,12.66,0,0,1-8.52-1.7,12.93,12.93,0,0,0-4-1.52c-.66-.1-2.23-.32-7.09,1.33a26.88,26.88,0,0,0,.14-8.35,48.15,48.15,0,0,0,6.24.49,22.07,22.07,0,0,0,9.16-3,21.4,21.4,0,0,1,4.91-2c2.58,0,7.09.28,11.93.68C394.12,46.72,388.72,52.84,384.15,53.45ZM361.33,32.62c4-16.58,15.34-25.24,30.08-23.14C404.23,11.27,405.73,24.36,405.9,27a8,8,0,0,0,1.7,4.19c-7.82-.73-18-1.58-22.7-1.58A21.71,21.71,0,0,0,376,32.5a22.45,22.45,0,0,1-5.11,2.07,51.11,51.11,0,0,1-9.77-1.3A4.64,4.64,0,0,0,361.33,32.62ZM264.18,65.79c24-21.85,56.24-33.2,85.57-30.54,2.7.53,4.28,3.65,4.84,5,2.17,5.26,1.59,11.93-1.31,15.44-6.71,8.21-28.09,25.77-33.86,30L313.14,87a4.58,4.58,0,0,0,1.71,9l58.41-11.5c1.48.93,3.66,2.69,3.51,4.46-.12,1.35-3.41,3.7-7.19,5.2a23.62,23.62,0,0,0-18.48-.19c-10.67,4.77-41,16.74-48.78,17.28a9.35,9.35,0,0,1-6.82-2,8.67,8.67,0,0,1-2.67-6.26c-.31-5.33,14.16-31.12,27.44-42.28a4.59,4.59,0,1,0-5.9-7c-13.74,11.57-31.24,40-30.68,49.82a25.32,25.32,0,0,0,.41,3l-.64-.13c-7.18-1.91-31.59-5.92-46.11-3C241.44,91.82,250.1,78.54,264.18,65.79Zm73.29,67.54c-3.77-3.88-13.64-9.85-24.34-15.23,12.68-3.77,30.93-11.22,38.67-14.49,4.53,14.69,15.34,50,18.36,60.27,3.86,13.63-1.28,23.31-5.49,29.41l-5.12,7.52c-3.1,4.5-5.23,7.63-11,15.83-7.84,11.11-11.31,16-23.12,16.88a13.32,13.32,0,0,0-1.88-6.14c-3.27-5.44-10.12-8.42-15.34-10,8.39-12.57,28.26-42.46,32.78-49.84C346.94,157.64,351.24,147.56,337.47,133.33ZM234.93,113.61c3.53-3.57,30.68-2.67,46.31,1.54h.27c12.5,2.52,43.48,18.42,49.43,24.47,9.53,9.84,7.17,14.92,2.18,23.06-5.54,9.07-36,54.63-36.29,55.1A4.74,4.74,0,0,0,300,225c4.06.54,13.19,3,15.68,7.15a3.88,3.88,0,0,1,.56,1.61H281.1a28.05,28.05,0,0,1,2.71-11.39c10.5-22.94,32.69-64,32.91-64.44a4.54,4.54,0,0,0-1.78-6.18,4.42,4.42,0,0,0-1.62-.53c-.23,0-22.31-2.92-33.48-5.41-13.87-3.07-41.38-15.08-43.63-19.89A25,25,0,0,1,234.93,113.61Zm40.55,104.87a37.05,37.05,0,0,0-3.55,15.21h-2.5c-5.11,0-9.14-3.31-11-9.09-4.11-13,3.62-34.38,30-53.21a4.55,4.55,0,0,0,3-4.11c.12-.19.22-.39.32-.59l3.16-8.88c3.88.61,7.6,1.16,10.58,1.57C299,171.65,283.71,200.52,275.48,218.48Zm-27.77-74.63a184,184,0,0,0,30.1,10.89c2.32.51,5.12,1,8,1.55l-2.2,6.22H162.21l5-14a7.56,7.56,0,0,1,6.17-4.69Zm-114.12-9.2,4.82-55.17h74.26l-4.73,55.17Zm71.84,134.83v0c-2.05,23.51-22.82,42.61-46.29,42.61a37.49,37.49,0,0,1-38.36-36.61,38.67,38.67,0,0,1,.23-5.16,48.29,48.29,0,0,1,.89-5.49l83.73-.07C205.58,266.34,205.57,267.91,205.43,269.48Zm146.45-22.55,0,0a5.36,5.36,0,0,0-.68.75c-5,5.12-10.6,7.93-20.79,7.93H95.94a10,10,0,0,1-.13-5.11c2.13-14.87,20.6-49.28,61.06-78.91H273.31c-23.55,20.75-27.78,42.4-23.58,55.69,3,9.55,10.56,15.5,19.7,15.5h51.49c20.31,0,25.87-7.9,35.07-20.93,5.81-8.27,8-11.42,11.08-16l5.11-7.48c8.25-11.93,10.47-24.11,6.82-37.12-2.93-10.23-13.63-45.13-18.29-60.09a17.09,17.09,0,0,1,6.43,1.7,4.53,4.53,0,0,0,3.65.37c2.4-.75,14.38-5,15.15-13.63a12.31,12.31,0,0,0-3.33-9.27,18,18,0,0,1,2.32-.12,21.15,21.15,0,0,1,6.44.63,4,4,0,0,0,.18.82c1.05,4.38.2,17.4-1.71,23.07a39,39,0,0,1-8.71-.15c-1.53-.14-2.88-.25-3.94-.25h-.68l-.46.1h-.41l-.44.19-.37.2-.38.26-.34.27-.31.3a4.22,4.22,0,0,0-.27.36c-.1.12-.17.24-.26.36l-.2.38-.17.4a3.74,3.74,0,0,0-.12.45,1.41,1.41,0,0,0,0,.41,2,2,0,0,0,0,.49v.41a1.93,1.93,0,0,0,0,.48,3.53,3.53,0,0,0,0,.46.67.67,0,0,0,0,.2c2.32,7.55,5.56,17.45,8.66,27,4.36,13.37,8.86,27.27,10.07,32A34.73,34.73,0,0,1,386,199c-5.77,8.39-14.57,21-26.14,37.36A105.71,105.71,0,0,1,351.88,246.93ZM459.7,269.48l0,0c-2.06,23.51-22.84,42.61-46.29,42.61a37.58,37.58,0,0,1-38.13-41.79,43.25,43.25,0,0,1,1.06-6.29c4.63-1.82,9.34-6.58,15-12.29,6.48-6.58,14.54-14.76,20.23-14.76h35.39A37.93,37.93,0,0,1,459.7,269.48Zm-48.16-41.69,0,0c-9.52,0-18.74,9.29-26.76,17.49-3.78,3.85-10.12,10.23-12.33,10.36H361.33a2.07,2.07,0,0,1-1.38-.39,4.89,4.89,0,0,1-.67-2.9,124,124,0,0,0,7.94-10.46c8.53-12,15.48-22,20.9-29.81a3,3,0,0,0,.43-.29c5.53-4.67,16.83-10.12,30.45-10.12,22.67,0,36,7.62,44.55,26C452.77,227.7,430.88,227.79,411.54,227.79Z"></path><path class="cls-2" d="M182.69,265.05c.05.49.1,1,.11,1.49a16.74,16.74,0,0,1-.11,2.35,21.92,21.92,0,0,1-21.39,19.7,17.15,17.15,0,0,1-12.85-5.47,17.41,17.41,0,0,1-4.36-13.43,21.55,21.55,0,0,1,1-4.64h-9.48A33.22,33.22,0,0,0,135,269a26.12,26.12,0,0,0,23.2,28.73,25.22,25.22,0,0,0,3.13.14,31.29,31.29,0,0,0,30.53-28.05,26.76,26.76,0,0,0,.07-4.73Z"></path></g></g></svg>