<svg xmlns="http://www.w3.org/2000/svg" viewBox="0 0 1450.32 312.22"><defs><style>.cls-1{fill:#f7ab05;}.cls-2{fill:#313131;}</style></defs><g id="Layer_2" data-name="Layer 2"><g id="Layer_1-2" data-name="Layer 1"><path class="cls-1" d="M701.91,248l92.5-55.62A15.93,15.93,0,0,0,799,170.42a15.74,15.74,0,0,0-21.34-5.62L700.9,208l-62.5-6a6.47,6.47,0,0,1,1.08-12.9l52.71,3.8a15.85,15.85,0,0,0,16.95-14.67c0-.53.05-1.05,0-1.58l-.09-3.06a15.91,15.91,0,0,0-14.17-15.33l-72.06-7.56a4.66,4.66,0,0,0-2.25.31L567.06,172.5,531.9,165a4.64,4.64,0,0,0-5.54,3.51.29.29,0,0,1,0,.09,4.69,4.69,0,0,0,3.61,5.56h0l36.56,7.77a4.55,4.55,0,0,0,2.73-.24L623,160l70.84,7.5a6.48,6.48,0,0,1,5.78,6.25l.09,3.06a6.37,6.37,0,0,1-2,4.85,6.45,6.45,0,0,1-4.94,1.78l-52.71-3.79a15.4,15.4,0,0,0-11.54,3.85,15.85,15.85,0,0,0,8.88,27.75l64,6.18a4.54,4.54,0,0,0,2.75-.58l78-43.89a6.61,6.61,0,0,1,8.95,2.68c0,.05.05.09.07.14a6.42,6.42,0,0,1-1.87,8.65l-91.52,55L602,255.72,532,239a4.69,4.69,0,0,0-2.17,9.12L600.75,265a4.45,4.45,0,0,0,1.09.13,5.12,5.12,0,0,0,.78-.06l97.66-16.54A4.4,4.4,0,0,0,701.91,248Z"></path><path class="cls-1" d="M601.83,265.36a4.78,4.78,0,0,1-1.13-.13l-70.91-16.92a4.88,4.88,0,0,1,2.27-9.5L602,255.52l95.77-16.24,91.48-55a6.2,6.2,0,0,0,1.81-8.37l-.08-.16a6.4,6.4,0,0,0-8.67-2.59l-78,43.88a4.72,4.72,0,0,1-2.87.61l-64-6.19a16,16,0,0,1-9-28.09,15.68,15.68,0,0,1,11.69-3.9l52.71,3.79a6.29,6.29,0,0,0,4.79-1.72,6.18,6.18,0,0,0,1.93-4.7l-.09-3.06a6.3,6.3,0,0,0-5.6-6.06l-70.79-7.49-53.74,21.66a4.72,4.72,0,0,1-2.85.25l-36.56-7.76a4.89,4.89,0,0,1-3.76-5.8l0-.09a4.84,4.84,0,0,1,5.77-3.67l35.11,7.49,53.49-21.54a4.81,4.81,0,0,1,2.34-.33L694.94,158a16.18,16.18,0,0,1,14.35,15.52l.09,3.06c0,.53,0,1.07,0,1.6A16,16,0,0,1,692.18,193l-52.71-3.8a6.26,6.26,0,0,0-6.59,5.57,6.29,6.29,0,0,0,5.54,6.93l62.44,6,76.69-43.13a16,16,0,0,1,21.62,5.7,16.21,16.21,0,0,1-4.65,22.19L702,248.14h0a4.72,4.72,0,0,1-1.7.63l-97.66,16.53a4.36,4.36,0,0,1-.81.07ZM531,239.08a4.54,4.54,0,0,0-2.38.69,4.44,4.44,0,0,0-2,2.8,4.51,4.51,0,0,0,3.29,5.36l70.91,16.91a4.53,4.53,0,0,0,1,.12h0a4.74,4.74,0,0,0,.75-.06l97.65-16.53a4.33,4.33,0,0,0,1.56-.58h0l92.5-55.62A15.94,15.94,0,0,0,777.75,165l-76.81,43.19h-.06l-62.5-6a6.68,6.68,0,0,1,1.11-13.3l52.72,3.8a15.64,15.64,0,0,0,16.73-14.49c0-.51,0-1,0-1.55l-.09-3.07a15.78,15.78,0,0,0-14-15.13l-72.06-7.56a4.39,4.39,0,0,0-2.15.3L567.08,172.7l-35.22-7.51a4.45,4.45,0,0,0-5.3,3.36l0,.08A4.49,4.49,0,0,0,530,174l36.56,7.76a4.27,4.27,0,0,0,2.62-.23L623,159.8h0l70.84,7.5a6.71,6.71,0,0,1,6,6.45l.09,3.06a6.59,6.59,0,0,1-2.06,5,6.67,6.67,0,0,1-5.09,1.83l-52.71-3.79a15.31,15.31,0,0,0-11.4,3.8,15.65,15.65,0,0,0,8.77,27.4l64,6.18a4.25,4.25,0,0,0,2.63-.56l78-43.88a6.8,6.8,0,0,1,9.21,2.75l.08.15a6.6,6.6,0,0,1-1.94,8.9l-91.56,55.07h0L602,255.92h0L532,239.2A4.36,4.36,0,0,0,531,239.08Z"></path><path class="cls-2" d="M800,85.2h-5V55.25a4.69,4.69,0,0,0-4.69-4.69h-9.64V28.33h5a4.69,4.69,0,0,0,4.69-4.68v-14h18.83V.3h-23a3,3,0,0,0-.5-.1l-.48.1-44.42,0A3.91,3.91,0,0,0,740,.2a5.32,5.32,0,0,0-.67.14H711.24A272.21,272.21,0,0,0,656,9.61a4.69,4.69,0,0,0,2.27,9.1l.19-.05a268.39,268.39,0,0,1,52.79-8.93h24.1V23.65A4.69,4.69,0,0,0,740,28.33h5V50.56h-9.68a4.69,4.69,0,0,0-4.69,4.69v30h-5a26.25,26.25,0,0,0-26.25,26.25h0V150a4.69,4.69,0,0,0,9.37,0V111.43a16.87,16.87,0,0,1,16.88-16.87h42.5a4.69,4.69,0,0,0,0-9.38H740V59.94h45.62V85.2h-3.42a4.69,4.69,0,0,0,0,9.38H800a16.87,16.87,0,0,1,16.87,16.87h0V274A16.87,16.87,0,0,1,800,290.85H725.61A16.87,16.87,0,0,1,708.74,274h0V257.89a4.69,4.69,0,0,0-9.38,0V274a26.25,26.25,0,0,0,26.25,26.25H800A26.25,26.25,0,0,0,826.24,274h0V111.43A26.25,26.25,0,0,0,800,85.2ZM744.72,9.71l36.2,0V19h-36.2Zm9.64,18.62H771.3V50.56H754.36Z"></path><path class="cls-2" d="M800,300.42H725.61A26.49,26.49,0,0,1,699.16,274V257.89a4.89,4.89,0,0,1,9.78,0V274a16.69,16.69,0,0,0,16.67,16.68H800A16.69,16.69,0,0,0,816.66,274V111.45A16.69,16.69,0,0,0,800,94.78h-17.8a4.89,4.89,0,0,1,0-9.78h3.22V60.14H740.19V85h27.93a4.89,4.89,0,0,1,0,9.78h-42.5A16.69,16.69,0,0,0,709,111.43V150a4.89,4.89,0,0,1-9.78,0V111.45A26.49,26.49,0,0,1,725.62,85h4.8V55.25a4.9,4.9,0,0,1,4.89-4.89h9.48V28.53H740a4.9,4.9,0,0,1-4.89-4.88V9.93h-23.9a269.48,269.48,0,0,0-52.74,8.92l-.19,0a4.89,4.89,0,1,1-2.37-9.48A272.49,272.49,0,0,1,711.23.14h28.11A5,5,0,0,1,740,0a4.73,4.73,0,0,1,.73.14l44.37,0,.47-.1h.06l.52.1h23.17V9.87H790.5V23.65a4.89,4.89,0,0,1-4.89,4.88h-4.75V50.36h9.44a4.9,4.9,0,0,1,4.89,4.89V85H800a26.49,26.49,0,0,1,26.45,26.43V274A26.49,26.49,0,0,1,800,300.42Zm-95.94-47a4.5,4.5,0,0,0-4.49,4.49V274a26.08,26.08,0,0,0,26.05,26H800a26.08,26.08,0,0,0,26-26V111.43a26.09,26.09,0,0,0-26-26h-5.2V55.25a4.5,4.5,0,0,0-4.49-4.49h-9.84V28.13h5.15a4.49,4.49,0,0,0,4.49-4.48V9.47h18.83V.5H786.11a4.27,4.27,0,0,0-.49-.1l-.44.09h0l-44.44,0h0A4.67,4.67,0,0,0,740,.4a5.87,5.87,0,0,0-.59.13H711.24A271.27,271.27,0,0,0,656,9.81a4.49,4.49,0,0,0-3.27,5.44,4.5,4.5,0,0,0,5.45,3.26l.17,0a268.92,268.92,0,0,1,52.83-8.94h24.32V23.65A4.49,4.49,0,0,0,740,28.13h5.16V50.76h-9.88a4.5,4.5,0,0,0-4.49,4.49V85.4h-5.2a26.08,26.08,0,0,0-26,26.05V150a4.49,4.49,0,0,0,9,0V111.43a17.09,17.09,0,0,1,17.08-17.07h42.5a4.49,4.49,0,1,0,0-9H739.79V59.74h46V85.4h-3.62a4.49,4.49,0,0,0,0,9H800a17.09,17.09,0,0,1,17.07,17.07V274A17.09,17.09,0,0,1,800,291.05H725.61A17.09,17.09,0,0,1,708.54,274V257.89A4.49,4.49,0,0,0,704.05,253.4ZM771.5,50.76H754.16V28.13H771.5Zm-16.94-.4H771.1V28.53H754.56Zm26.56-31.2h-36.6V9.51h.2l36.4,0Zm-36.2-.4h35.8V9.88l-35.8,0Z"></path><path class="cls-2" d="M657.22,131.11a30.94,30.94,0,0,0,30.89-30.91,30.36,30.36,0,0,0-2.75-12.7l0-.1-23.87-50a4.89,4.89,0,0,0-8.46,0L629.08,87.5a30.56,30.56,0,0,0-2.79,12.7A31,31,0,0,0,657.22,131.11ZM637.58,91.45l19.64-41.12L676.86,91.4a21.54,21.54,0,1,1-39.28,0Z"></path><path class="cls-2" d="M657.22,131.31h0a31.21,31.21,0,0,1-31.13-31.11,30.67,30.67,0,0,1,2.8-12.79l23.92-50.09a5.07,5.07,0,0,1,8.81,0l23.92,50.11a30.55,30.55,0,0,1,2.77,12.79A31.19,31.19,0,0,1,657.22,131.31Zm0-96.15a4.69,4.69,0,0,0-4.05,2.34l-23.9,50.08a30.21,30.21,0,0,0-2.77,12.62,30.71,30.71,0,1,0,61.42,0,30,30,0,0,0-2.73-12.62l0-.09-23.87-50A4.68,4.68,0,0,0,657.21,35.16Zm0,86.42h-.38a21.69,21.69,0,0,1-21.38-21.38,21.39,21.39,0,0,1,1.9-8.84h0l19.82-41.5L677,91.31a21.31,21.31,0,0,1,2,8.88,21.75,21.75,0,0,1-21.74,21.39Zm-19.49-30a21.06,21.06,0,0,0-1.87,8.67,21.35,21.35,0,0,0,42.7,0,21,21,0,0,0-1.91-8.71L657.22,50.79Z"></path><path class="cls-1" d="M1210.91,72.07c13.35,0,28.55-19.73,28.55-37a27.88,27.88,0,0,0-26-29.64c-.86-.05-1.71-.07-2.57-.05a27.89,27.89,0,0,0-28.6,27.14c0,.85,0,1.7,0,2.55C1182.36,52.34,1197.57,72.07,1210.91,72.07Zm0-57.34a18.52,18.52,0,0,1,19.25,17.76,19.75,19.75,0,0,1-.07,2.55c0,13.43-12.5,27.66-19.18,27.66S1191.74,48.47,1191.74,35a18.52,18.52,0,0,1,16.63-20.24A19.54,19.54,0,0,1,1210.91,14.73Z"></path><path class="cls-2" d="M1211,171.47a4.69,4.69,0,0,0-4.69,4.68h0v120.3a4.69,4.69,0,0,0,9.38,0V176.18a4.69,4.69,0,0,0-4.67-4.71Z"></path><path class="cls-2" d="M1262,181.59a18,18,0,0,0,9.57-15.89V90a4.68,4.68,0,0,0-2.72-4.25l-36-16.59a4.65,4.65,0,0,0-4.1.08l-17.87,9.14-17.8-9.13a4.61,4.61,0,0,0-4.11-.09l-36,16.59a4.68,4.68,0,0,0-2.73,4.25V165.7a18,18,0,0,0,9.56,15.89l12.45,6.6a4.19,4.19,0,0,0,.91.23v108a4.69,4.69,0,1,0,9.38,0V112a4.69,4.69,0,1,0-9.38,0v66.06l-9-4.75a8.61,8.61,0,0,1-4.57-7.6V93L1189,79.47,1206.8,112a4.69,4.69,0,0,0,6.37,1.85A4.64,4.64,0,0,0,1215,112l17.9-32.58L1262.18,93V165.7a8.6,8.6,0,0,1-4.58,7.61l-9,4.76V112a4.69,4.69,0,1,0-9.37,0V296.46a4.69,4.69,0,0,0,9.37,0v-108a3.81,3.81,0,0,0,.93-.27ZM1211,100l-8.49-15.5,6.35,3.25a4.6,4.6,0,0,0,4.27,0l6.39-3.27Z"></path><path class="cls-1" d="M1389.7,72.07c13.34,0,28.55-19.73,28.55-37a28.57,28.57,0,1,0-57.1-2.07q0,1,0,2.07C1361.13,52.34,1376.34,72.07,1389.7,72.07Zm0-57.34A18.52,18.52,0,0,1,1409,32.49a18.11,18.11,0,0,1-.08,2.55c0,13.43-12.5,27.66-19.17,27.66S1370.52,48.47,1370.52,35a18.53,18.53,0,0,1,16.63-20.24A19.75,19.75,0,0,1,1389.7,14.73Z"></path><path class="cls-2" d="M1389.7,171.47a4.69,4.69,0,0,0-4.69,4.68h0v120.3a4.69,4.69,0,0,0,9.38,0V176.18a4.69,4.69,0,0,0-4.67-4.71Z"></path><path class="cls-2" d="M1447.6,85.72l-35.95-16.59a4.67,4.67,0,0,0-4.11.08l-17.84,9.14-17.81-9.13a4.59,4.59,0,0,0-4.1-.09l-36,16.59a4.68,4.68,0,0,0-2.72,4.25V165.7a18,18,0,0,0,9.56,15.89l12.44,6.6a4.33,4.33,0,0,0,.93.28v108a4.69,4.69,0,1,0,9.37,0V112a4.69,4.69,0,1,0-9.37,0v66.06l-9-4.76a8.57,8.57,0,0,1-4.58-7.6V93l29.25-13.5L1385.59,112a4.68,4.68,0,0,0,6.36,1.85,4.73,4.73,0,0,0,1.86-1.85l17.9-32.57L1441,93V165.7a8.6,8.6,0,0,1-4.58,7.61l-9,4.76V112a4.69,4.69,0,0,0-9.38,0V296.46a4.69,4.69,0,0,0,9.38,0v-108a4.19,4.19,0,0,0,.91-.23l12.45-6.6a18,18,0,0,0,9.55-15.89V90A4.65,4.65,0,0,0,1447.6,85.72ZM1389.7,100l-8.49-15.5,6.34,3.25a4.62,4.62,0,0,0,4.28,0l6.39-3.27Z"></path><path class="cls-1" d="M1332.77,282.17a4.69,4.69,0,0,0-6.74,6.52l.12.12,3,2.95h-57.54l3-2.95a4.69,4.69,0,0,0-6.51-6.75l-.11.11-11,11a4.69,4.69,0,0,0,0,6.63h0l10.95,11a4.69,4.69,0,0,0,6.63-6.62l-3-3h57.52l-3,3a4.69,4.69,0,0,0,6.4,6.86l.23-.24,11-11a4.68,4.68,0,0,0,0-6.62h0Z"></path><path class="cls-1" d="M176.12,83.05a4.71,4.71,0,0,0,1.06-4.27l-3.59-14.55a4.69,4.69,0,1,0-9.09,2.34l2.06,8c-9.17-.61-25.78-.77-39.26,4.69a4.69,4.69,0,0,0,3.22,8.8l.27-.11a75.74,75.74,0,0,1,26.65-4.19l-.23.19a3,3,0,0,0-.59.7,5,5,0,0,0-.44.82,4.36,4.36,0,0,0-.26.87,3.47,3.47,0,0,0,0,.91,4.71,4.71,0,0,0,1.26,3.21,3.33,3.33,0,0,0,.71.59,3.4,3.4,0,0,0,.82.44,3.71,3.71,0,0,0,.86.26,4.34,4.34,0,0,0,1.83,0,3.8,3.8,0,0,0,.89-.26,3.46,3.46,0,0,0,.8-.44,3,3,0,0,0,.7-.59,5.72,5.72,0,0,0,1.39-4.22,6.54,6.54,0,0,0-.26-.86,4,4,0,0,0-.71-.82,3.28,3.28,0,0,0-.58-.71h0c4.94.26,8.2.71,8.3.71A4.71,4.71,0,0,0,176.12,83.05Z"></path><path class="cls-1" d="M160.49,92a5.11,5.11,0,0,1-1-.1,4.77,4.77,0,0,1-2.47-1.34,4.82,4.82,0,0,1-1.3-3.31,3.62,3.62,0,0,1,0-.93,4.56,4.56,0,0,1,.27-.91,5.26,5.26,0,0,1,.46-.84,3.45,3.45,0,0,1,.54-.67,75.14,75.14,0,0,0-26.2,4.2l-.27.1a4.83,4.83,0,0,1-3.32-9.08C140,74,155.5,73.74,166.36,74.45l-2-7.84a4.84,4.84,0,1,1,9.38-2.42l3.59,14.56a4.88,4.88,0,0,1-5.42,6l-.26,0c-2.43-.28-5-.5-7.63-.65a5,5,0,0,1,.32.44,4,4,0,0,1,.71.83,5,5,0,0,1,.28.92,3.85,3.85,0,0,1,0,1,4.79,4.79,0,0,1-1.42,3.4,3.25,3.25,0,0,1-.73.6,3.67,3.67,0,0,1-.82.46,3.87,3.87,0,0,1-.92.27A5,5,0,0,1,160.49,92Zm-4.84-8.41c.59,0,1.19,0,1.79,0h.42l-.56.44a3,3,0,0,0-.55.67,4.78,4.78,0,0,0-.44.8,5.47,5.47,0,0,0-.25.84,3.54,3.54,0,0,0,0,.86,4.56,4.56,0,0,0,1.22,3.13A3.33,3.33,0,0,0,158,91a3.2,3.2,0,0,0,.79.43,3.53,3.53,0,0,0,.84.25,4.22,4.22,0,0,0,1.77,0A4.1,4.1,0,0,0,163,91a2.9,2.9,0,0,0,.68-.57A5.55,5.55,0,0,0,165,86.3a5.24,5.24,0,0,0-.25-.83,4.29,4.29,0,0,0-.66-.76l0,0a4,4,0,0,0-.56-.67l-.31-.28.42,0c2.77.15,5.48.37,8,.68l.25,0A4.55,4.55,0,0,0,176,83h0a4.55,4.55,0,0,0,1-4.13l-3.59-14.56a4.54,4.54,0,0,0-8.8,2.27l2.12,8.24h-.21c-10.84-.72-26.43-.49-39.19,4.68A4.53,4.53,0,1,0,130.47,88l.26-.1A75.37,75.37,0,0,1,155.65,83.63Z"></path><path class="cls-1" d="M112,63.22a4.51,4.51,0,0,0,2.11-.49c42.68-21.4,69-14.79,69.47-14.7a4.69,4.69,0,0,0,2.49-9c-1.2-.33-29.79-7.9-76.15,15.35A4.69,4.69,0,0,0,112,63.22Z"></path><path class="cls-1" d="M112.1,63.37H112a4.84,4.84,0,0,1-2.15-9.14c46.24-23.19,75.05-15.7,76.25-15.37a4.85,4.85,0,0,1,3.19,5.6,4.83,4.83,0,0,1-5.74,3.72c-2.82-.66-28.47-5.82-69.37,14.68A4.57,4.57,0,0,1,112.1,63.37Zm60-25.62c-13,0-34.36,2.86-62,16.75a4.53,4.53,0,0,0,2,8.57h.06a4.26,4.26,0,0,0,2-.48c41-20.55,66.74-15.37,69.55-14.71a4.51,4.51,0,0,0,3.44-.62,4.54,4.54,0,0,0-1-8.11A57.23,57.23,0,0,0,172.07,37.75Z"></path><path class="cls-2" d="M236.87,141.62c-.59-15.54-22.31-41.56-26.25-46.15a48,48,0,0,1-5.27-17.69c0-2.58,3.3-6.71,5.69-9.73.92-1.15,1.78-2.35,2.49-3.21,5-7,2.2-58,2.06-60.19a4.7,4.7,0,1,0-9.38.52c1.18,21.09,1.2,49.8-.49,54.42-.58.82-1.29,1.69-2,2.62-3.44,4.32-7.73,9.71-7.73,15.57A51.43,51.43,0,0,0,200,94.86l-103,24L5,115.93a4.69,4.69,0,1,0-.28,9.38l88.41,2.83c1.31,19.78,3,46,3.28,52.41-3.73,3.82-20.7,15.49-36,25.31L6.13,190.25a4.69,4.69,0,0,0-2.58,9l55.2,15.92,50,44.53c-14.18,5.13-19.5,15.47-19.5,35.83a4.69,4.69,0,0,0,4.69,4.69h0a4.69,4.69,0,0,0,4.69-4.69c0-21.33,5.58-26.2,21.09-28.92a261,261,0,0,0,36.92,3.31c9.37,0,18.3-1,23.27-4C200.21,253.79,238.18,176.19,236.87,141.62ZM175.16,257.89c-8.06,4.83-37.64,2.16-55.34-.77l-51-45.54c37-23.86,37-27.09,37-29.74,0-3.24-2.51-41.35-3.38-54.59L205,103.35c2,2.34,4.41,5.46,7,8.9l-39,9.21a4.72,4.72,0,0,0,1.06,9.38,4.54,4.54,0,0,0,1.1-.14l42.56-10.08c5.09,7.73,9.56,15.94,9.78,21.35C228.76,174.81,191.26,248.24,175.16,257.89Z"></path><path class="cls-2" d="M93.9,300.37a4.84,4.84,0,0,1-4.84-4.84c0-20.67,5.44-30.76,19.37-35.89L58.67,215.3,3.51,199.4a4.84,4.84,0,0,1,2.65-9.29L60.32,205.7c14.56-9.32,32-21.28,35.91-25.21-.27-6.18-1.83-30.61-3.27-52.2L4.69,125.46A4.84,4.84,0,0,1,5,115.78l92,3,102.82-24a51.84,51.84,0,0,1-4-17c0-5.94,4.31-11.33,7.77-15.66l.23-.3c.65-.81,1.27-1.58,1.79-2.3,1.68-4.67,1.63-33.52.47-54.35a4.85,4.85,0,0,1,9.68-.53c0,.53,3,53.06-2.09,60.28-.36.45-.76,1-1.19,1.54s-.85,1.12-1.3,1.68l-.15.19c-2.32,2.94-5.51,7-5.51,9.44a47.53,47.53,0,0,0,5.25,17.63c4.27,5,25.69,30.71,26.27,46.21h0C238.34,176.29,200.23,254,180,266.06c-4.44,2.66-12.3,4-23.35,4a262.45,262.45,0,0,1-36.92-3.31c-15.45,2.72-20.94,7.48-20.94,28.77A4.84,4.84,0,0,1,93.9,300.37ZM5.07,190.28a4.54,4.54,0,0,0-1.47,8.83l55.25,15.94L109,259.75l-.23.09c-14,5.05-19.41,15.06-19.41,35.69a4.54,4.54,0,1,0,9.08,0c0-10.86,1.42-17.3,4.76-21.53,3.54-4.48,9.14-6.25,16.46-7.54h0a262,262,0,0,0,36.89,3.31c10.84,0,18.87-1.37,23.19-4C200,253.73,238,176.23,236.72,141.62h0c-.58-15.4-21.94-41.06-26.21-46.05a47.91,47.91,0,0,1-5.31-17.78c0-2.59,3.22-6.67,5.58-9.65l.15-.18,1.29-1.68c.43-.56.83-1.09,1.19-1.54,5-7.13,2.06-59.56,2-60.08A4.55,4.55,0,0,0,210.9.36h-.25a4.5,4.5,0,0,0-3.13,1.51,4.54,4.54,0,0,0-1.16,3.28c1.16,20.88,1.2,49.84-.5,54.48l0,0c-.52.74-1.14,1.52-1.8,2.34l-.24.3c-3.43,4.29-7.7,9.64-7.7,15.46a51.37,51.37,0,0,0,4.06,17l.08.17-.18,0L97,119h0l-92-3H4.84a4.54,4.54,0,0,0-.14,9.08L93.25,128v.13c1.43,21.7,3,46.32,3.28,52.41v.07l-.05,0c-3.84,3.95-21,15.73-36.07,25.34l-.06,0-.06,0L6.09,190.4A4.44,4.44,0,0,0,5.07,190.28ZM157.35,260.7a252.93,252.93,0,0,1-37.55-3.43h0l0,0L68.58,211.56l.16-.11c36.92-23.81,36.92-27,36.92-29.61,0-3.08-2.27-37.72-3.24-52.52l-.14-2.19.12,0L205,103.18l.06.07c1.78,2.12,4.08,5,7,8.91l.14.18-.22.06-39,9.21a4.57,4.57,0,1,0,1,9.08,4.26,4.26,0,0,0,1.08-.14l42.67-10.1.06.09c6.32,9.61,9.62,16.82,9.8,21.42,1.26,32.88-36.29,106.39-52.41,116.06h0C172,260,165.33,260.7,157.35,260.7ZM119.89,257c17.82,2.94,47.18,5.58,55.19.78h0c16.08-9.64,53.53-83,52.27-115.78-.18-4.54-3.44-11.67-9.7-21.19l-42.46,10a4.33,4.33,0,0,1-1.13.15,4.89,4.89,0,0,1-5.37-4.3,4.88,4.88,0,0,1,4.3-5.38l38.75-9.15c-2.85-3.74-5.08-6.57-6.82-8.65L102.59,127.37l.13,1.93c1,14.8,3.24,49.45,3.24,52.54,0,2.65,0,5.95-36.89,29.76Z"></path></g></g></svg>